<svg width="12" height="12" viewBox="0 0 12 12" fill="none" xmlns="http://www.w3.org/2000/svg">
<g id="01 align center">
<path id="Vector" d="M3.11395 9.16536H5.10999L11.2794 2.99592C11.5437 2.731 11.6921 2.37209 11.6921 1.9979C11.6921 1.62371 11.5437 1.2648 11.2794 0.99988C11.0107 0.742979 10.6532 0.599609 10.2814 0.599609C9.90963 0.599609 9.55216 0.742979 9.2834 0.99988L3.11395 7.16932V9.16536ZM4.01836 7.54375L9.92282 1.6393C10.0194 1.54703 10.1478 1.49554 10.2814 1.49554C10.415 1.49554 10.5434 1.54703 10.64 1.6393C10.735 1.73449 10.7883 1.86345 10.7883 1.9979C10.7883 2.13234 10.735 2.2613 10.64 2.3565L4.73556 8.26095H4.01836V7.54375Z" fill="#23233F"/>
<path id="Vector_2" d="M11.5344 4.0202L10.8014 4.75323V7.80878H8.08814V10.522H1.75726V1.9301C1.75726 1.81017 1.8049 1.69515 1.8897 1.61035C1.97451 1.52554 2.08953 1.4779 2.20946 1.4779H7.5265L8.25952 0.744872C8.32555 0.683654 8.39516 0.626424 8.46799 0.573486L2.20946 0.573486C1.84966 0.573486 1.5046 0.716415 1.25019 0.97083C0.995773 1.22525 0.852844 1.57031 0.852844 1.9301L0.852844 11.4264H9.17976L11.7058 8.90041V3.81173C11.6527 3.88448 11.5955 3.95408 11.5344 4.0202ZM8.99255 10.3348V8.71319H10.6142L8.99255 10.3348Z" fill="#23233F"/>
</g>
</svg>
