<svg width="11" height="12" viewBox="0 0 11 12" fill="none" xmlns="http://www.w3.org/2000/svg">
<path id="Vector" d="M8.8184 11.4264C8.72801 11.4265 8.63968 11.3994 8.5648 11.3488C8.48991 11.2982 8.43192 11.2263 8.3983 11.1424L8.01663 10.1869L7.05977 9.78397C6.97769 9.74772 6.90815 9.68803 6.85988 9.61239C6.81161 9.53676 6.78676 9.44854 6.78845 9.35883C6.79014 9.26912 6.81829 9.18191 6.86938 9.10814C6.92047 9.03438 6.99221 8.97735 7.07559 8.94422L8.0198 8.58653L8.3983 7.64051C8.43311 7.55784 8.49154 7.48728 8.56626 7.43767C8.64099 7.38805 8.7287 7.36158 8.8184 7.36158C8.9081 7.36158 8.9958 7.38805 9.07053 7.43767C9.14526 7.48728 9.20369 7.55784 9.2385 7.64051L9.6188 8.59015L10.5684 8.97045C10.6513 9.0051 10.722 9.06347 10.7718 9.13822C10.8215 9.21297 10.8481 9.30076 10.8481 9.39055C10.8481 9.48034 10.8215 9.56813 10.7718 9.64288C10.722 9.71763 10.6513 9.776 10.5684 9.81065L9.6188 10.191L9.2385 11.1406C9.20516 11.2248 9.14729 11.2971 9.07238 11.3481C8.99748 11.399 8.90899 11.4263 8.8184 11.4264ZM4.52244 10.0698C4.32708 10.0721 4.1362 10.0111 3.97839 9.89595C3.82057 9.78077 3.7043 9.61757 3.64697 9.4308L2.91711 7.14851L0.627591 6.38248C0.442803 6.32071 0.28243 6.20181 0.169636 6.04294C0.0568423 5.88407 -0.00253411 5.69346 8.294e-05 5.49864C0.00269999 5.30382 0.067175 5.11488 0.184196 4.9591C0.301216 4.80332 0.464725 4.68877 0.651105 4.63199L2.92254 3.9383L3.68767 1.65285C3.74456 1.46513 3.86223 1.30164 4.02219 1.1881C4.18214 1.07456 4.3753 1.01741 4.57128 1.02564C4.76668 1.02591 4.95673 1.08945 5.113 1.20675C5.26927 1.32406 5.38335 1.48882 5.43816 1.67637L6.13094 3.94418L8.40553 4.67223C8.589 4.73377 8.7485 4.85139 8.8615 5.00848C8.9745 5.16557 9.03529 5.35419 9.03529 5.5477C9.03529 5.74122 8.9745 5.92984 8.8615 6.08693C8.7485 6.24402 8.589 6.36164 8.40553 6.42317L6.12687 7.15213L5.39791 9.4308C5.34058 9.61757 5.22431 9.78077 5.06649 9.89595C4.90868 10.0111 4.7178 10.0721 4.52244 10.0698ZM4.57309 1.94046L3.70847 4.44613C3.68567 4.51452 3.64686 4.57648 3.59525 4.62682C3.54365 4.67716 3.48076 4.71444 3.41182 4.73554L0.915194 5.49706L3.42087 6.36394C3.48828 6.3864 3.54945 6.42443 3.59942 6.47495C3.64939 6.52547 3.68675 6.58705 3.70847 6.6547L4.50887 9.1554L5.33641 6.6547C5.35836 6.58604 5.39641 6.52362 5.44738 6.47265C5.49836 6.42167 5.56078 6.38363 5.62944 6.36167L8.13014 5.56172C8.13334 5.56084 8.13639 5.55946 8.13918 5.55765L5.62944 4.73373C5.55979 4.71146 5.49658 4.67263 5.44523 4.62057C5.39388 4.56851 5.35592 4.50477 5.3346 4.43483L4.57309 1.94046ZM9.2706 3.73888C9.16979 3.73888 9.07187 3.70519 8.9924 3.64317C8.91293 3.58115 8.85646 3.49435 8.83196 3.39656L8.67053 2.74991L8.02251 2.57581C7.92512 2.54964 7.83926 2.49166 7.7786 2.4111C7.71794 2.33053 7.68595 2.232 7.68771 2.13116C7.68948 2.03033 7.7249 1.93298 7.78835 1.85459C7.8518 1.7762 7.93964 1.72127 8.03789 1.69853L8.67098 1.55156L8.83196 0.915759C8.85647 0.81798 8.91294 0.731192 8.99241 0.669179C9.07189 0.607167 9.1698 0.573486 9.2706 0.573486C9.37141 0.573486 9.46932 0.607167 9.54879 0.669179C9.62826 0.731192 9.68474 0.81798 9.70924 0.915759L9.86932 1.55699L10.5106 1.71752C10.6083 1.74203 10.6951 1.7985 10.7571 1.87797C10.8191 1.95744 10.8528 2.05536 10.8528 2.15616C10.8528 2.25696 10.8191 2.35488 10.7571 2.43435C10.6951 2.51382 10.6083 2.57029 10.5106 2.5948L9.86932 2.75533L9.70924 3.39656C9.68475 3.49435 9.62828 3.58115 9.5488 3.64317C9.46933 3.70519 9.37141 3.73888 9.2706 3.73888Z" fill="#23233F"/>
</svg>
