<svg width="79" height="78" viewBox="0 0 79 78" fill="none" xmlns="http://www.w3.org/2000/svg">
<g clip-path="url(#clip0_16_20)">
<path d="M63.4512 25.1401L61.1339 49.162C60.63 53.3794 58.462 57.3298 55.1076 60.1445L52.6175 62.2339C46.2147 67.6065 36.9352 67.0904 31.8921 61.0803C29.4619 58.1842 26.2628 56.0217 22.6161 54.808L13.2925 51.7058C11.8653 51.231 10.9997 49.9095 11.0439 48.4606C11.1155 46.0256 13.6218 44.21 15.9475 44.9824C29.5164 49.4973 13.8034 44.2687 29.225 49.4002C11.522 37.4295 11.929 37.8749 11.371 36.8882C11.2992 36.8026 11.056 36.2801 10.9648 35.8494C10.1652 32.268 14.3511 29.4221 17.3052 31.4185C18.2282 32.0427 32.7374 41.8546 33.6275 42.4566C18.5435 24.4801 19.2923 25.4007 19.0997 25.0912C18.026 23.3668 18.5807 21.1196 19.9037 20.0095C21.6653 18.3885 24.3045 18.5026 25.7151 20.1837L40.3805 37.6612C31.1441 15.9176 31.7238 17.4993 31.6453 16.6125C31.4414 14.6991 32.871 12.6246 35.0089 12.1605C36.65 11.7278 38.5874 12.5269 39.3566 14.247L48.2846 34.2376L51.2266 37.7438C52.2131 38.9194 54.2204 38.2382 54.4085 36.6643C54.7835 28.4784 54.7401 29.198 54.7939 28.8486C55.3881 25.0896 58.1431 22.2983 59.522 21.9325C61.6146 21.2516 63.7298 22.8088 63.4512 25.1401Z" fill="#F9CFAC"/>
<path d="M61.92 22.1146L59.1682 49.4486C58.5859 52.6023 57.0751 55.5628 54.8391 57.9532C47.7965 65.4941 37.4641 64.8667 32.1905 58.5819C29.7604 55.6858 26.5613 53.5233 22.9146 52.3096C10.4685 48.2813 11.1951 48.5201 11.0439 48.4605C11.0838 47.1037 11.9125 45.8051 13.232 45.1746C13.9731 44.8203 14.5412 44.7885 15.2492 44.8279C22.1717 47.0158 29.2337 49.3928 29.2249 49.4001C29.9783 48.768 29.9638 47.6371 29.1957 47.1177C12.6675 35.9413 13.6318 36.6887 13.1282 36.0303C12.3736 35.0819 12.1222 33.6085 12.6319 32.301C12.8445 31.751 13.1878 31.2689 13.2235 31.2384C14.5174 30.5756 16.0854 30.5945 17.3051 31.4184C18.9322 32.5188 31.8686 41.267 33.6275 42.4565C18.008 23.8419 19.2558 25.372 18.9995 24.9237C18.7109 24.4065 18.5586 23.8197 18.5352 23.3268C18.4946 22.7262 18.6325 22.1479 18.6414 22.1405C19.483 18.7899 23.6886 17.7685 25.7151 20.1836L40.3804 37.6611C31.42 16.5671 31.8861 17.6811 31.8365 17.5252C30.9047 14.894 33.1751 11.7939 36.3135 12.0813C36.518 12.1054 35.6201 10.2699 47.0867 35.6641L50.0288 39.1703C50.8752 40.179 52.8919 40.1465 53.8527 38.4778C54.4979 37.3564 54.429 36.2149 54.492 34.8408C54.7758 28.6588 54.7363 29.391 54.7746 28.9837C54.9973 27.3507 55.6629 25.6677 56.806 24.1916C57.2886 23.5712 58.1253 22.6785 58.7633 22.2824C59.6303 21.7454 60.6357 21.6492 61.4896 21.9335C61.7211 22.0067 61.9088 22.1099 61.92 22.1146Z" fill="#FFE4CC"/>
<path d="M51.1866 57.6745C50.7985 58.0001 50.2361 57.9688 49.9305 57.6046C45.5099 52.3363 45.9262 44.3246 50.8987 38.9685C51.2448 38.5972 51.8094 38.5548 52.1634 38.8729C52.5177 39.1909 52.5257 39.7494 52.1814 40.1202C47.8312 44.8058 47.4677 51.8156 51.3358 56.4254C51.6415 56.7896 51.5746 57.3489 51.1866 57.6745Z" fill="#F9CFAC"/>
</g>
<defs>
<clipPath id="clip0_16_20">
<rect width="56.9852" height="53.4861" fill="white" transform="translate(0 36.6294) rotate(-40)"/>
</clipPath>
</defs>
</svg>
